<svg width="160" height="48" fill="none" xmlns="http://www.w3.org/2000/svg"><rect x="1" y="1" width="46" height="46" rx="3" stroke="#000" stroke-width="2"/><g clip-path="url(#a)" fill="#000"><path d="M20 17h-4v6h4v-6ZM32 17h-4v6h4v-6ZM26 17h-4v6h4v-6ZM20 25h-4v6h4v-6ZM32 25h-4v6h4v-6ZM26 25h-4v6h4v-6Z"/></g><rect x="57" y="1" width="46" height="46" rx="3" stroke="#E5E5E5" stroke-width="2"/><g clip-path="url(#b)" fill="#000"><path d="M88 29H72v2h16v-2ZM86 19v6H74v-6h12Zm2-2H72v10h16V17Z"/></g><rect x="113" y="1" width="46" height="46" rx="3" stroke="#E5E5E5" stroke-width="2"/><g clip-path="url(#c)" fill="#000"><path d="M130 17h-2v2h2v-2ZM144 17h-12v2h12v-2ZM130 21h-2v2h2v-2ZM144 21h-12v2h12v-2ZM130 25h-2v2h2v-2ZM144 25h-12v2h12v-2ZM130 29h-2v2h2v-2ZM144 29h-12v2h12v-2Z"/></g><defs><clipPath id="a"><path fill="#fff" transform="translate(16 17)" d="M0 0h16v14H0z"/></clipPath><clipPath id="b"><path fill="#fff" transform="translate(72 17)" d="M0 0h16v14H0z"/></clipPath><clipPath id="c"><path fill="#fff" transform="translate(128 17)" d="M0 0h16v14H0z"/></clipPath></defs></svg>